solid CATIA STL
  facet normal  0.000000e+000  0.000000e+000  1.000000e+000
    outer loop
      vertex -1.664673e+000  4.018876e+000  5.000000e-001
      vertex  1.664673e+000  4.018876e+000  5.000000e-001
      vertex  2.663519e-016  4.350000e+000  5.000000e-001
    endloop
  endfacet
  facet normal  -0.000000e+000  0.000000e+000  1.000000e+000
    outer loop
      vertex  1.664673e+000  4.018876e+000  5.000000e-001
      vertex -1.664673e+000  4.018876e+000  5.000000e-001
      vertex  3.075914e+000  3.075914e+000  5.000000e-001
    endloop
  endfacet
  facet normal  0.000000e+000  0.000000e+000  1.000000e+000
    outer loop
      vertex  3.075914e+000  3.075914e+000  5.000000e-001
      vertex -1.664673e+000  4.018876e+000  5.000000e-001
      vertex -3.075914e+000  3.075914e+000  5.000000e-001
    endloop
  endfacet
  facet normal  -0.000000e+000  0.000000e+000  1.000000e+000
    outer loop
      vertex  3.075914e+000  3.075914e+000  5.000000e-001
      vertex -3.075914e+000  3.075914e+000  5.000000e-001
      vertex  4.018876e+000  1.664673e+000  5.000000e-001
    endloop
  endfacet
  facet normal  0.000000e+000  0.000000e+000  1.000000e+000
    outer loop
      vertex  4.018876e+000  1.664673e+000  5.000000e-001
      vertex -3.075914e+000  3.075914e+000  5.000000e-001
      vertex -4.018876e+000  1.664673e+000  5.000000e-001
    endloop
  endfacet
  facet normal  -0.000000e+000  0.000000e+000  1.000000e+000
    outer loop
      vertex  4.018876e+000  1.664673e+000  5.000000e-001
      vertex -4.018876e+000  1.664673e+000  5.000000e-001
      vertex  4.350000e+000  0.000000e+000  5.000000e-001
    endloop
  endfacet
  facet normal  0.000000e+000  0.000000e+000  1.000000e+000
    outer loop
      vertex  4.350000e+000  0.000000e+000  5.000000e-001
      vertex -4.018876e+000  1.664673e+000  5.000000e-001
      vertex -4.350000e+000  5.327038e-016  5.000000e-001
    endloop
  endfacet
  facet normal  0.000000e+000  0.000000e+000  1.000000e+000
    outer loop
      vertex  4.350000e+000  0.000000e+000  5.000000e-001
      vertex -4.350000e+000  5.327038e-016  5.000000e-001
      vertex  4.018876e+000 -1.664673e+000  5.000000e-001
    endloop
  endfacet
  facet normal  0.000000e+000  0.000000e+000  1.000000e+000
    outer loop
      vertex  4.018876e+000 -1.664673e+000  5.000000e-001
      vertex -4.350000e+000  5.327038e-016  5.000000e-001
      vertex -4.018876e+000 -1.664673e+000  5.000000e-001
    endloop
  endfacet
  facet normal  -0.000000e+000  0.000000e+000  1.000000e+000
    outer loop
      vertex  4.018876e+000 -1.664673e+000  5.000000e-001
      vertex -4.018876e+000 -1.664673e+000  5.000000e-001
      vertex  3.075914e+000 -3.075914e+000  5.000000e-001
    endloop
  endfacet
  facet normal  0.000000e+000  0.000000e+000  1.000000e+000
    outer loop
      vertex  3.075914e+000 -3.075914e+000  5.000000e-001
      vertex -4.018876e+000 -1.664673e+000  5.000000e-001
      vertex -3.075914e+000 -3.075914e+000  5.000000e-001
    endloop
  endfacet
  facet normal  -0.000000e+000  0.000000e+000  1.000000e+000
    outer loop
      vertex  3.075914e+000 -3.075914e+000  5.000000e-001
      vertex -3.075914e+000 -3.075914e+000  5.000000e-001
      vertex  1.664673e+000 -4.018876e+000  5.000000e-001
    endloop
  endfacet
  facet normal  0.000000e+000  0.000000e+000  1.000000e+000
    outer loop
      vertex  1.664673e+000 -4.018876e+000  5.000000e-001
      vertex -3.075914e+000 -3.075914e+000  5.000000e-001
      vertex -1.664673e+000 -4.018876e+000  5.000000e-001
    endloop
  endfacet
  facet normal  -0.000000e+000  0.000000e+000  1.000000e+000
    outer loop
      vertex  1.664673e+000 -4.018876e+000  5.000000e-001
      vertex -1.664673e+000 -4.018876e+000  5.000000e-001
      vertex -7.990556e-016 -4.350000e+000  5.000000e-001
    endloop
  endfacet
  facet normal  0.000000e+000  0.000000e+000 -1.000000e+000
    outer loop
      vertex  2.663519e-016  4.350000e+000  0.000000e+000
      vertex  1.664673e+000  4.018876e+000  0.000000e+000
      vertex -1.664673e+000  4.018876e+000  0.000000e+000
    endloop
  endfacet
  facet normal  0.000000e+000  0.000000e+000 -1.000000e+000
    outer loop
      vertex -7.990556e-016 -4.350000e+000  0.000000e+000
      vertex -1.664673e+000 -4.018876e+000  0.000000e+000
      vertex  1.664673e+000 -4.018876e+000  0.000000e+000
    endloop
  endfacet
  facet normal  0.000000e+000  0.000000e+000 -1.000000e+000
    outer loop
      vertex  1.664673e+000 -4.018876e+000  0.000000e+000
      vertex -1.664673e+000 -4.018876e+000  0.000000e+000
      vertex -3.075914e+000 -3.075914e+000  0.000000e+000
    endloop
  endfacet
  facet normal  0.000000e+000  0.000000e+000 -1.000000e+000
    outer loop
      vertex  1.664673e+000 -4.018876e+000  0.000000e+000
      vertex -3.075914e+000 -3.075914e+000  0.000000e+000
      vertex  3.075914e+000 -3.075914e+000  0.000000e+000
    endloop
  endfacet
  facet normal  0.000000e+000  0.000000e+000 -1.000000e+000
    outer loop
      vertex  3.075914e+000 -3.075914e+000  0.000000e+000
      vertex -3.075914e+000 -3.075914e+000  0.000000e+000
      vertex -4.018876e+000 -1.664673e+000  0.000000e+000
    endloop
  endfacet
  facet normal  0.000000e+000  0.000000e+000 -1.000000e+000
    outer loop
      vertex  3.075914e+000 -3.075914e+000  0.000000e+000
      vertex -4.018876e+000 -1.664673e+000  0.000000e+000
      vertex  4.018876e+000 -1.664673e+000  0.000000e+000
    endloop
  endfacet
  facet normal  0.000000e+000  0.000000e+000 -1.000000e+000
    outer loop
      vertex  4.018876e+000 -1.664673e+000  0.000000e+000
      vertex -4.018876e+000 -1.664673e+000  0.000000e+000
      vertex -4.350000e+000  5.327038e-016  0.000000e+000
    endloop
  endfacet
  facet normal  0.000000e+000  0.000000e+000 -1.000000e+000
    outer loop
      vertex  4.018876e+000 -1.664673e+000  0.000000e+000
      vertex -4.350000e+000  5.327038e-016  0.000000e+000
      vertex  4.350000e+000  0.000000e+000  0.000000e+000
    endloop
  endfacet
  facet normal  0.000000e+000  0.000000e+000 -1.000000e+000
    outer loop
      vertex  4.350000e+000  0.000000e+000  0.000000e+000
      vertex -4.350000e+000  5.327038e-016  0.000000e+000
      vertex -4.018876e+000  1.664673e+000  0.000000e+000
    endloop
  endfacet
  facet normal  0.000000e+000  0.000000e+000 -1.000000e+000
    outer loop
      vertex  4.350000e+000  0.000000e+000  0.000000e+000
      vertex -4.018876e+000  1.664673e+000  0.000000e+000
      vertex  4.018876e+000  1.664673e+000  0.000000e+000
    endloop
  endfacet
  facet normal  0.000000e+000  0.000000e+000 -1.000000e+000
    outer loop
      vertex  4.018876e+000  1.664673e+000  0.000000e+000
      vertex -4.018876e+000  1.664673e+000  0.000000e+000
      vertex -3.075914e+000  3.075914e+000  0.000000e+000
    endloop
  endfacet
  facet normal  0.000000e+000  0.000000e+000 -1.000000e+000
    outer loop
      vertex  4.018876e+000  1.664673e+000  0.000000e+000
      vertex -3.075914e+000  3.075914e+000  0.000000e+000
      vertex  3.075914e+000  3.075914e+000  0.000000e+000
    endloop
  endfacet
  facet normal  0.000000e+000  0.000000e+000 -1.000000e+000
    outer loop
      vertex  3.075914e+000  3.075914e+000  0.000000e+000
      vertex -3.075914e+000  3.075914e+000  0.000000e+000
      vertex -1.664673e+000  4.018876e+000  0.000000e+000
    endloop
  endfacet
  facet normal  0.000000e+000  0.000000e+000 -1.000000e+000
    outer loop
      vertex  3.075914e+000  3.075914e+000  0.000000e+000
      vertex -1.664673e+000  4.018876e+000  0.000000e+000
      vertex  1.664673e+000  4.018876e+000  0.000000e+000
    endloop
  endfacet
  facet normal  9.807854e-001 -1.950902e-001  0.000000e+000
    outer loop
      vertex  4.350000e+000  0.000000e+000  0.000000e+000
      vertex  4.350000e+000  0.000000e+000  5.000000e-001
      vertex  4.018876e+000 -1.664673e+000  0.000000e+000
    endloop
  endfacet
  facet normal  9.807854e-001 -1.950902e-001  0.000000e+000
    outer loop
      vertex  4.018876e+000 -1.664673e+000  0.000000e+000
      vertex  4.350000e+000  0.000000e+000  5.000000e-001
      vertex  4.018876e+000 -1.664673e+000  5.000000e-001
    endloop
  endfacet
  facet normal  8.314696e-001 -5.555704e-001  0.000000e+000
    outer loop
      vertex  4.018876e+000 -1.664673e+000  0.000000e+000
      vertex  4.018876e+000 -1.664673e+000  5.000000e-001
      vertex  3.075914e+000 -3.075914e+000  0.000000e+000
    endloop
  endfacet
  facet normal  8.314696e-001 -5.555704e-001  0.000000e+000
    outer loop
      vertex  3.075914e+000 -3.075914e+000  0.000000e+000
      vertex  4.018876e+000 -1.664673e+000  5.000000e-001
      vertex  3.075914e+000 -3.075914e+000  5.000000e-001
    endloop
  endfacet
  facet normal  5.555704e-001 -8.314696e-001  0.000000e+000
    outer loop
      vertex  3.075914e+000 -3.075914e+000  0.000000e+000
      vertex  3.075914e+000 -3.075914e+000  5.000000e-001
      vertex  1.664673e+000 -4.018876e+000  0.000000e+000
    endloop
  endfacet
  facet normal  5.555704e-001 -8.314696e-001  0.000000e+000
    outer loop
      vertex  1.664673e+000 -4.018876e+000  0.000000e+000
      vertex  3.075914e+000 -3.075914e+000  5.000000e-001
      vertex  1.664673e+000 -4.018876e+000  5.000000e-001
    endloop
  endfacet
  facet normal  1.950902e-001 -9.807854e-001  0.000000e+000
    outer loop
      vertex  1.664673e+000 -4.018876e+000  0.000000e+000
      vertex  1.664673e+000 -4.018876e+000  5.000000e-001
      vertex -7.990556e-016 -4.350000e+000  0.000000e+000
    endloop
  endfacet
  facet normal  1.950902e-001 -9.807854e-001  0.000000e+000
    outer loop
      vertex -7.990556e-016 -4.350000e+000  0.000000e+000
      vertex  1.664673e+000 -4.018876e+000  5.000000e-001
      vertex -7.990556e-016 -4.350000e+000  5.000000e-001
    endloop
  endfacet
  facet normal -1.950902e-001 -9.807854e-001  -0.000000e+000
    outer loop
      vertex -7.990556e-016 -4.350000e+000  0.000000e+000
      vertex -7.990556e-016 -4.350000e+000  5.000000e-001
      vertex -1.664673e+000 -4.018876e+000  0.000000e+000
    endloop
  endfacet
  facet normal -1.950902e-001 -9.807854e-001  0.000000e+000
    outer loop
      vertex -1.664673e+000 -4.018876e+000  0.000000e+000
      vertex -7.990556e-016 -4.350000e+000  5.000000e-001
      vertex -1.664673e+000 -4.018876e+000  5.000000e-001
    endloop
  endfacet
  facet normal -5.555704e-001 -8.314696e-001  -0.000000e+000
    outer loop
      vertex -1.664673e+000 -4.018876e+000  0.000000e+000
      vertex -1.664673e+000 -4.018876e+000  5.000000e-001
      vertex -3.075914e+000 -3.075914e+000  0.000000e+000
    endloop
  endfacet
  facet normal -5.555704e-001 -8.314696e-001  0.000000e+000
    outer loop
      vertex -3.075914e+000 -3.075914e+000  0.000000e+000
      vertex -1.664673e+000 -4.018876e+000  5.000000e-001
      vertex -3.075914e+000 -3.075914e+000  5.000000e-001
    endloop
  endfacet
  facet normal -8.314696e-001 -5.555704e-001  -0.000000e+000
    outer loop
      vertex -3.075914e+000 -3.075914e+000  0.000000e+000
      vertex -3.075914e+000 -3.075914e+000  5.000000e-001
      vertex -4.018876e+000 -1.664673e+000  0.000000e+000
    endloop
  endfacet
  facet normal -8.314696e-001 -5.555704e-001  0.000000e+000
    outer loop
      vertex -4.018876e+000 -1.664673e+000  0.000000e+000
      vertex -3.075914e+000 -3.075914e+000  5.000000e-001
      vertex -4.018876e+000 -1.664673e+000  5.000000e-001
    endloop
  endfacet
  facet normal -9.807854e-001 -1.950902e-001  -0.000000e+000
    outer loop
      vertex -4.018876e+000 -1.664673e+000  0.000000e+000
      vertex -4.018876e+000 -1.664673e+000  5.000000e-001
      vertex -4.350000e+000  5.327038e-016  0.000000e+000
    endloop
  endfacet
  facet normal -9.807854e-001 -1.950902e-001  0.000000e+000
    outer loop
      vertex -4.350000e+000  5.327038e-016  0.000000e+000
      vertex -4.018876e+000 -1.664673e+000  5.000000e-001
      vertex -4.350000e+000  5.327038e-016  5.000000e-001
    endloop
  endfacet
  facet normal -9.807854e-001  1.950902e-001  0.000000e+000
    outer loop
      vertex -4.350000e+000  5.327038e-016  0.000000e+000
      vertex -4.350000e+000  5.327038e-016  5.000000e-001
      vertex -4.018876e+000  1.664673e+000  0.000000e+000
    endloop
  endfacet
  facet normal -9.807854e-001  1.950902e-001  0.000000e+000
    outer loop
      vertex -4.018876e+000  1.664673e+000  0.000000e+000
      vertex -4.350000e+000  5.327038e-016  5.000000e-001
      vertex -4.018876e+000  1.664673e+000  5.000000e-001
    endloop
  endfacet
  facet normal -8.314696e-001  5.555704e-001  0.000000e+000
    outer loop
      vertex -4.018876e+000  1.664673e+000  0.000000e+000
      vertex -4.018876e+000  1.664673e+000  5.000000e-001
      vertex -3.075914e+000  3.075914e+000  0.000000e+000
    endloop
  endfacet
  facet normal -8.314696e-001  5.555704e-001  0.000000e+000
    outer loop
      vertex -3.075914e+000  3.075914e+000  0.000000e+000
      vertex -4.018876e+000  1.664673e+000  5.000000e-001
      vertex -3.075914e+000  3.075914e+000  5.000000e-001
    endloop
  endfacet
  facet normal -5.555704e-001  8.314696e-001  0.000000e+000
    outer loop
      vertex -3.075914e+000  3.075914e+000  0.000000e+000
      vertex -3.075914e+000  3.075914e+000  5.000000e-001
      vertex -1.664673e+000  4.018876e+000  0.000000e+000
    endloop
  endfacet
  facet normal -5.555704e-001  8.314696e-001  0.000000e+000
    outer loop
      vertex -1.664673e+000  4.018876e+000  0.000000e+000
      vertex -3.075914e+000  3.075914e+000  5.000000e-001
      vertex -1.664673e+000  4.018876e+000  5.000000e-001
    endloop
  endfacet
  facet normal -1.950902e-001  9.807854e-001  0.000000e+000
    outer loop
      vertex -1.664673e+000  4.018876e+000  0.000000e+000
      vertex -1.664673e+000  4.018876e+000  5.000000e-001
      vertex  2.663519e-016  4.350000e+000  0.000000e+000
    endloop
  endfacet
  facet normal -1.950902e-001  9.807854e-001  0.000000e+000
    outer loop
      vertex  2.663519e-016  4.350000e+000  0.000000e+000
      vertex -1.664673e+000  4.018876e+000  5.000000e-001
      vertex  2.663519e-016  4.350000e+000  5.000000e-001
    endloop
  endfacet
  facet normal  1.950902e-001  9.807854e-001  0.000000e+000
    outer loop
      vertex  2.663519e-016  4.350000e+000  0.000000e+000
      vertex  2.663519e-016  4.350000e+000  5.000000e-001
      vertex  1.664673e+000  4.018876e+000  0.000000e+000
    endloop
  endfacet
  facet normal  1.950902e-001  9.807854e-001  -0.000000e+000
    outer loop
      vertex  1.664673e+000  4.018876e+000  0.000000e+000
      vertex  2.663519e-016  4.350000e+000  5.000000e-001
      vertex  1.664673e+000  4.018876e+000  5.000000e-001
    endloop
  endfacet
  facet normal  5.555704e-001  8.314696e-001  0.000000e+000
    outer loop
      vertex  1.664673e+000  4.018876e+000  0.000000e+000
      vertex  1.664673e+000  4.018876e+000  5.000000e-001
      vertex  3.075914e+000  3.075914e+000  0.000000e+000
    endloop
  endfacet
  facet normal  5.555704e-001  8.314696e-001  -0.000000e+000
    outer loop
      vertex  3.075914e+000  3.075914e+000  0.000000e+000
      vertex  1.664673e+000  4.018876e+000  5.000000e-001
      vertex  3.075914e+000  3.075914e+000  5.000000e-001
    endloop
  endfacet
  facet normal  8.314696e-001  5.555704e-001  0.000000e+000
    outer loop
      vertex  3.075914e+000  3.075914e+000  0.000000e+000
      vertex  3.075914e+000  3.075914e+000  5.000000e-001
      vertex  4.018876e+000  1.664673e+000  0.000000e+000
    endloop
  endfacet
  facet normal  8.314696e-001  5.555704e-001  -0.000000e+000
    outer loop
      vertex  4.018876e+000  1.664673e+000  0.000000e+000
      vertex  3.075914e+000  3.075914e+000  5.000000e-001
      vertex  4.018876e+000  1.664673e+000  5.000000e-001
    endloop
  endfacet
  facet normal  9.807854e-001  1.950902e-001  0.000000e+000
    outer loop
      vertex  4.018876e+000  1.664673e+000  0.000000e+000
      vertex  4.018876e+000  1.664673e+000  5.000000e-001
      vertex  4.350000e+000  0.000000e+000  0.000000e+000
    endloop
  endfacet
  facet normal  9.807854e-001  1.950902e-001  -0.000000e+000
    outer loop
      vertex  4.350000e+000  0.000000e+000  0.000000e+000
      vertex  4.018876e+000  1.664673e+000  5.000000e-001
      vertex  4.350000e+000  0.000000e+000  5.000000e-001
    endloop
  endfacet
endsolid CATIA STL
