solid CATIA STL
  facet normal -2.990056e-001 -9.542514e-001  0.000000e+000
    outer loop
      vertex -2.133444e+000 -3.905242e+000  3.900000e+000
      vertex -2.133444e+000 -3.905242e+000  5.000000e-001
      vertex -4.765733e-001 -4.424407e+000  3.900000e+000
    endloop
  endfacet
  facet normal -2.990056e-001 -9.542514e-001  -0.000000e+000
    outer loop
      vertex -4.765733e-001 -4.424407e+000  3.900000e+000
      vertex -2.133444e+000 -3.905242e+000  5.000000e-001
      vertex -4.765733e-001 -4.424407e+000  5.000000e-001
    endloop
  endfacet
  facet normal  8.893105e-002 -9.960378e-001  0.000000e+000
    outer loop
      vertex -4.765733e-001 -4.424407e+000  3.900000e+000
      vertex -4.765733e-001 -4.424407e+000  5.000000e-001
      vertex  1.252851e+000 -4.269996e+000  3.900000e+000
    endloop
  endfacet
  facet normal  8.893105e-002 -9.960378e-001  0.000000e+000
    outer loop
      vertex  1.252851e+000 -4.269996e+000  3.900000e+000
      vertex -4.765733e-001 -4.424407e+000  5.000000e-001
      vertex  1.252851e+000 -4.269996e+000  5.000000e-001
    endloop
  endfacet
  facet normal  4.633286e-001 -8.861865e-001  0.000000e+000
    outer loop
      vertex  1.252851e+000 -4.269996e+000  3.900000e+000
      vertex  1.252851e+000 -4.269996e+000  5.000000e-001
      vertex  2.791540e+000 -3.465517e+000  3.900000e+000
    endloop
  endfacet
  facet normal  4.633286e-001 -8.861865e-001  0.000000e+000
    outer loop
      vertex  2.791540e+000 -3.465517e+000  3.900000e+000
      vertex  1.252851e+000 -4.269996e+000  5.000000e-001
      vertex  2.791540e+000 -3.465517e+000  5.000000e-001
    endloop
  endfacet
  facet normal  7.671888e-001 -6.414214e-001  0.000000e+000
    outer loop
      vertex  2.791540e+000 -3.465517e+000  3.900000e+000
      vertex  2.791540e+000 -3.465517e+000  5.000000e-001
      vertex  3.905242e+000 -2.133444e+000  3.900000e+000
    endloop
  endfacet
  facet normal  7.671888e-001 -6.414214e-001  0.000000e+000
    outer loop
      vertex  3.905242e+000 -2.133444e+000  3.900000e+000
      vertex  2.791540e+000 -3.465517e+000  5.000000e-001
      vertex  3.905242e+000 -2.133444e+000  5.000000e-001
    endloop
  endfacet
  facet normal  9.542514e-001 -2.990056e-001  0.000000e+000
    outer loop
      vertex  3.905242e+000 -2.133444e+000  3.900000e+000
      vertex  3.905242e+000 -2.133444e+000  5.000000e-001
      vertex  4.424407e+000 -4.765733e-001  3.900000e+000
    endloop
  endfacet
  facet normal  9.542514e-001 -2.990056e-001  0.000000e+000
    outer loop
      vertex  4.424407e+000 -4.765733e-001  3.900000e+000
      vertex  3.905242e+000 -2.133444e+000  5.000000e-001
      vertex  4.424407e+000 -4.765733e-001  5.000000e-001
    endloop
  endfacet
  facet normal  9.960378e-001  8.893105e-002  -0.000000e+000
    outer loop
      vertex  4.424407e+000 -4.765733e-001  3.900000e+000
      vertex  4.424407e+000 -4.765733e-001  5.000000e-001
      vertex  4.269996e+000  1.252851e+000  3.900000e+000
    endloop
  endfacet
  facet normal  9.960378e-001  8.893105e-002  0.000000e+000
    outer loop
      vertex  4.269996e+000  1.252851e+000  3.900000e+000
      vertex  4.424407e+000 -4.765733e-001  5.000000e-001
      vertex  4.269996e+000  1.252851e+000  5.000000e-001
    endloop
  endfacet
  facet normal  8.861865e-001  4.633286e-001  -0.000000e+000
    outer loop
      vertex  4.269996e+000  1.252851e+000  3.900000e+000
      vertex  4.269996e+000  1.252851e+000  5.000000e-001
      vertex  3.465517e+000  2.791540e+000  3.900000e+000
    endloop
  endfacet
  facet normal  8.861865e-001  4.633286e-001  0.000000e+000
    outer loop
      vertex  3.465517e+000  2.791540e+000  3.900000e+000
      vertex  4.269996e+000  1.252851e+000  5.000000e-001
      vertex  3.465517e+000  2.791540e+000  5.000000e-001
    endloop
  endfacet
  facet normal  6.414214e-001  7.671888e-001  -0.000000e+000
    outer loop
      vertex  3.465517e+000  2.791540e+000  3.900000e+000
      vertex  3.465517e+000  2.791540e+000  5.000000e-001
      vertex  2.133444e+000  3.905242e+000  3.900000e+000
    endloop
  endfacet
  facet normal  6.414214e-001  7.671888e-001  0.000000e+000
    outer loop
      vertex  2.133444e+000  3.905242e+000  3.900000e+000
      vertex  3.465517e+000  2.791540e+000  5.000000e-001
      vertex  2.133444e+000  3.905242e+000  5.000000e-001
    endloop
  endfacet
  facet normal  2.990056e-001  9.542514e-001  -0.000000e+000
    outer loop
      vertex  2.133444e+000  3.905242e+000  3.900000e+000
      vertex  2.133444e+000  3.905242e+000  5.000000e-001
      vertex  4.765733e-001  4.424407e+000  3.900000e+000
    endloop
  endfacet
  facet normal  2.990056e-001  9.542514e-001  0.000000e+000
    outer loop
      vertex  4.765733e-001  4.424407e+000  3.900000e+000
      vertex  2.133444e+000  3.905242e+000  5.000000e-001
      vertex  4.765733e-001  4.424407e+000  5.000000e-001
    endloop
  endfacet
  facet normal -8.893105e-002  9.960378e-001  0.000000e+000
    outer loop
      vertex  4.765733e-001  4.424407e+000  3.900000e+000
      vertex  4.765733e-001  4.424407e+000  5.000000e-001
      vertex -1.252851e+000  4.269996e+000  3.900000e+000
    endloop
  endfacet
  facet normal -8.893105e-002  9.960378e-001  0.000000e+000
    outer loop
      vertex -1.252851e+000  4.269996e+000  3.900000e+000
      vertex  4.765733e-001  4.424407e+000  5.000000e-001
      vertex -1.252851e+000  4.269996e+000  5.000000e-001
    endloop
  endfacet
  facet normal -4.633286e-001  8.861865e-001  0.000000e+000
    outer loop
      vertex -1.252851e+000  4.269996e+000  3.900000e+000
      vertex -1.252851e+000  4.269996e+000  5.000000e-001
      vertex -2.791540e+000  3.465517e+000  3.900000e+000
    endloop
  endfacet
  facet normal -4.633286e-001  8.861865e-001  0.000000e+000
    outer loop
      vertex -2.791540e+000  3.465517e+000  3.900000e+000
      vertex -1.252851e+000  4.269996e+000  5.000000e-001
      vertex -2.791540e+000  3.465517e+000  5.000000e-001
    endloop
  endfacet
  facet normal -7.671888e-001  6.414214e-001  0.000000e+000
    outer loop
      vertex -2.791540e+000  3.465517e+000  3.900000e+000
      vertex -2.791540e+000  3.465517e+000  5.000000e-001
      vertex -3.905242e+000  2.133444e+000  3.900000e+000
    endloop
  endfacet
  facet normal -7.671888e-001  6.414214e-001  0.000000e+000
    outer loop
      vertex -3.905242e+000  2.133444e+000  3.900000e+000
      vertex -2.791540e+000  3.465517e+000  5.000000e-001
      vertex -3.905242e+000  2.133444e+000  5.000000e-001
    endloop
  endfacet
  facet normal -9.542514e-001  2.990056e-001  0.000000e+000
    outer loop
      vertex -3.905242e+000  2.133444e+000  3.900000e+000
      vertex -3.905242e+000  2.133444e+000  5.000000e-001
      vertex -4.424407e+000  4.765733e-001  3.900000e+000
    endloop
  endfacet
  facet normal -9.542514e-001  2.990056e-001  0.000000e+000
    outer loop
      vertex -4.424407e+000  4.765733e-001  3.900000e+000
      vertex -3.905242e+000  2.133444e+000  5.000000e-001
      vertex -4.424407e+000  4.765733e-001  5.000000e-001
    endloop
  endfacet
  facet normal -9.960378e-001 -8.893105e-002  0.000000e+000
    outer loop
      vertex -4.424407e+000  4.765733e-001  3.900000e+000
      vertex -4.424407e+000  4.765733e-001  5.000000e-001
      vertex -4.269996e+000 -1.252851e+000  3.900000e+000
    endloop
  endfacet
  facet normal -9.960378e-001 -8.893105e-002  -0.000000e+000
    outer loop
      vertex -4.269996e+000 -1.252851e+000  3.900000e+000
      vertex -4.424407e+000  4.765733e-001  5.000000e-001
      vertex -4.269996e+000 -1.252851e+000  5.000000e-001
    endloop
  endfacet
  facet normal -8.861865e-001 -4.633286e-001  0.000000e+000
    outer loop
      vertex -4.269996e+000 -1.252851e+000  3.900000e+000
      vertex -4.269996e+000 -1.252851e+000  5.000000e-001
      vertex -3.465517e+000 -2.791540e+000  3.900000e+000
    endloop
  endfacet
  facet normal -8.861865e-001 -4.633286e-001  -0.000000e+000
    outer loop
      vertex -3.465517e+000 -2.791540e+000  3.900000e+000
      vertex -4.269996e+000 -1.252851e+000  5.000000e-001
      vertex -3.465517e+000 -2.791540e+000  5.000000e-001
    endloop
  endfacet
  facet normal -6.414214e-001 -7.671888e-001  0.000000e+000
    outer loop
      vertex -3.465517e+000 -2.791540e+000  3.900000e+000
      vertex -3.465517e+000 -2.791540e+000  5.000000e-001
      vertex -2.133444e+000 -3.905242e+000  3.900000e+000
    endloop
  endfacet
  facet normal -6.414214e-001 -7.671888e-001  -0.000000e+000
    outer loop
      vertex -2.133444e+000 -3.905242e+000  3.900000e+000
      vertex -3.465517e+000 -2.791540e+000  5.000000e-001
      vertex -2.133444e+000 -3.905242e+000  5.000000e-001
    endloop
  endfacet
  facet normal  0.000000e+000  0.000000e+000 -1.000000e+000
    outer loop
      vertex  1.252851e+000 -4.269996e+000  5.000000e-001
      vertex -4.765733e-001 -4.424407e+000  5.000000e-001
      vertex  2.791540e+000 -3.465517e+000  5.000000e-001
    endloop
  endfacet
  facet normal  0.000000e+000  0.000000e+000 -9.999999e-001
    outer loop
      vertex  2.791540e+000 -3.465517e+000  5.000000e-001
      vertex -4.765733e-001 -4.424407e+000  5.000000e-001
      vertex -2.133444e+000 -3.905242e+000  5.000000e-001
    endloop
  endfacet
  facet normal  0.000000e+000  0.000000e+000 -1.000000e+000
    outer loop
      vertex  2.791540e+000 -3.465517e+000  5.000000e-001
      vertex -2.133444e+000 -3.905242e+000  5.000000e-001
      vertex  3.905242e+000 -2.133444e+000  5.000000e-001
    endloop
  endfacet
  facet normal  0.000000e+000  0.000000e+000 -1.000000e+000
    outer loop
      vertex  3.905242e+000 -2.133444e+000  5.000000e-001
      vertex -2.133444e+000 -3.905242e+000  5.000000e-001
      vertex -3.465517e+000 -2.791540e+000  5.000000e-001
    endloop
  endfacet
  facet normal  0.000000e+000  0.000000e+000 -1.000000e+000
    outer loop
      vertex  3.905242e+000 -2.133444e+000  5.000000e-001
      vertex -3.465517e+000 -2.791540e+000  5.000000e-001
      vertex  4.424407e+000 -4.765733e-001  5.000000e-001
    endloop
  endfacet
  facet normal  0.000000e+000  0.000000e+000 -1.000000e+000
    outer loop
      vertex  4.424407e+000 -4.765733e-001  5.000000e-001
      vertex -3.465517e+000 -2.791540e+000  5.000000e-001
      vertex -4.269996e+000 -1.252851e+000  5.000000e-001
    endloop
  endfacet
  facet normal  0.000000e+000  0.000000e+000 -1.000000e+000
    outer loop
      vertex  4.424407e+000 -4.765733e-001  5.000000e-001
      vertex -4.269996e+000 -1.252851e+000  5.000000e-001
      vertex  4.269996e+000  1.252851e+000  5.000000e-001
    endloop
  endfacet
  facet normal  0.000000e+000  0.000000e+000 -1.000000e+000
    outer loop
      vertex  4.269996e+000  1.252851e+000  5.000000e-001
      vertex -4.269996e+000 -1.252851e+000  5.000000e-001
      vertex -4.424407e+000  4.765733e-001  5.000000e-001
    endloop
  endfacet
  facet normal  0.000000e+000  0.000000e+000 -1.000000e+000
    outer loop
      vertex  4.269996e+000  1.252851e+000  5.000000e-001
      vertex -4.424407e+000  4.765733e-001  5.000000e-001
      vertex  3.465517e+000  2.791540e+000  5.000000e-001
    endloop
  endfacet
  facet normal  0.000000e+000  0.000000e+000 -1.000000e+000
    outer loop
      vertex  3.465517e+000  2.791540e+000  5.000000e-001
      vertex -4.424407e+000  4.765733e-001  5.000000e-001
      vertex -3.905242e+000  2.133444e+000  5.000000e-001
    endloop
  endfacet
  facet normal  0.000000e+000  0.000000e+000 -1.000000e+000
    outer loop
      vertex  3.465517e+000  2.791540e+000  5.000000e-001
      vertex -3.905242e+000  2.133444e+000  5.000000e-001
      vertex  2.133444e+000  3.905242e+000  5.000000e-001
    endloop
  endfacet
  facet normal  0.000000e+000  0.000000e+000 -1.000000e+000
    outer loop
      vertex  2.133444e+000  3.905242e+000  5.000000e-001
      vertex -3.905242e+000  2.133444e+000  5.000000e-001
      vertex -2.791540e+000  3.465517e+000  5.000000e-001
    endloop
  endfacet
  facet normal  0.000000e+000  0.000000e+000 -9.999999e-001
    outer loop
      vertex  2.133444e+000  3.905242e+000  5.000000e-001
      vertex -2.791540e+000  3.465517e+000  5.000000e-001
      vertex  4.765733e-001  4.424407e+000  5.000000e-001
    endloop
  endfacet
  facet normal  0.000000e+000  0.000000e+000 -1.000000e+000
    outer loop
      vertex  4.765733e-001  4.424407e+000  5.000000e-001
      vertex -2.791540e+000  3.465517e+000  5.000000e-001
      vertex -1.252851e+000  4.269996e+000  5.000000e-001
    endloop
  endfacet
  facet normal  0.000000e+000  0.000000e+000  1.000000e+000
    outer loop
      vertex -2.844507e+000 -2.039309e+000  3.900000e+000
      vertex -3.447635e+000 -6.031683e-001  3.900000e+000
      vertex -4.269996e+000 -1.252851e+000  3.900000e+000
    endloop
  endfacet
  facet normal  0.000000e+000  0.000000e+000  1.000000e+000
    outer loop
      vertex -4.269996e+000 -1.252851e+000  3.900000e+000
      vertex -3.447635e+000 -6.031683e-001  3.900000e+000
      vertex -3.367917e+000  9.524370e-001  3.900000e+000
    endloop
  endfacet
  facet normal  0.000000e+000  0.000000e+000  1.000000e+000
    outer loop
      vertex -4.269996e+000 -1.252851e+000  3.900000e+000
      vertex -3.367917e+000  9.524370e-001  3.900000e+000
      vertex -4.424407e+000  4.765733e-001  3.900000e+000
    endloop
  endfacet
  facet normal  0.000000e+000  0.000000e+000  1.000000e+000
    outer loop
      vertex -4.424407e+000  4.765733e-001  3.900000e+000
      vertex -3.367917e+000  9.524370e-001  3.900000e+000
      vertex -2.621141e+000  2.319400e+000  3.900000e+000
    endloop
  endfacet
  facet normal  0.000000e+000  0.000000e+000  1.000000e+000
    outer loop
      vertex -4.424407e+000  4.765733e-001  3.900000e+000
      vertex -2.621141e+000  2.319400e+000  3.900000e+000
      vertex -3.905242e+000  2.133444e+000  3.900000e+000
    endloop
  endfacet
  facet normal  0.000000e+000  0.000000e+000  9.999999e-001
    outer loop
      vertex -3.905242e+000  2.133444e+000  3.900000e+000
      vertex -2.621141e+000  2.319400e+000  3.900000e+000
      vertex -1.355217e+000  3.226978e+000  3.900000e+000
    endloop
  endfacet
  facet normal  0.000000e+000  0.000000e+000  1.000000e+000
    outer loop
      vertex -3.905242e+000  2.133444e+000  3.900000e+000
      vertex -1.355217e+000  3.226978e+000  3.900000e+000
      vertex -2.791540e+000  3.465517e+000  3.900000e+000
    endloop
  endfacet
  facet normal  -0.000000e+000  0.000000e+000  1.000000e+000
    outer loop
      vertex -2.791540e+000  3.465517e+000  3.900000e+000
      vertex -1.355217e+000  3.226978e+000  3.900000e+000
      vertex  1.791254e-001  3.495413e+000  3.900000e+000
    endloop
  endfacet
  facet normal  0.000000e+000  0.000000e+000  9.999999e-001
    outer loop
      vertex -2.791540e+000  3.465517e+000  3.900000e+000
      vertex  1.791254e-001  3.495413e+000  3.900000e+000
      vertex -1.252851e+000  4.269996e+000  3.900000e+000
    endloop
  endfacet
  facet normal  0.000000e+000  0.000000e+000  1.000000e+000
    outer loop
      vertex -1.252851e+000  4.269996e+000  3.900000e+000
      vertex  1.791254e-001  3.495413e+000  3.900000e+000
      vertex  2.133444e+000  3.905242e+000  3.900000e+000
    endloop
  endfacet
  facet normal  0.000000e+000  0.000000e+000  1.000000e+000
    outer loop
      vertex -1.252851e+000  4.269996e+000  3.900000e+000
      vertex  2.133444e+000  3.905242e+000  3.900000e+000
      vertex  4.765733e-001  4.424407e+000  3.900000e+000
    endloop
  endfacet
  facet normal  0.000000e+000  0.000000e+000  1.000000e+000
    outer loop
      vertex -4.765733e-001 -4.424407e+000  3.900000e+000
      vertex  1.252851e+000 -4.269996e+000  3.900000e+000
      vertex -1.791254e-001 -3.495413e+000  3.900000e+000
    endloop
  endfacet
  facet normal  -0.000000e+000  0.000000e+000  9.999999e-001
    outer loop
      vertex -1.791254e-001 -3.495413e+000  3.900000e+000
      vertex  1.252851e+000 -4.269996e+000  3.900000e+000
      vertex  2.791540e+000 -3.465517e+000  3.900000e+000
    endloop
  endfacet
  facet normal  0.000000e+000  0.000000e+000  1.000000e+000
    outer loop
      vertex -1.791254e-001 -3.495413e+000  3.900000e+000
      vertex  2.791540e+000 -3.465517e+000  3.900000e+000
      vertex  1.355217e+000 -3.226978e+000  3.900000e+000
    endloop
  endfacet
  facet normal  -0.000000e+000  0.000000e+000  1.000000e+000
    outer loop
      vertex  1.355217e+000 -3.226978e+000  3.900000e+000
      vertex  2.791540e+000 -3.465517e+000  3.900000e+000
      vertex  3.905242e+000 -2.133444e+000  3.900000e+000
    endloop
  endfacet
  facet normal  0.000000e+000  0.000000e+000  9.999999e-001
    outer loop
      vertex  1.355217e+000 -3.226978e+000  3.900000e+000
      vertex  3.905242e+000 -2.133444e+000  3.900000e+000
      vertex  2.621141e+000 -2.319400e+000  3.900000e+000
    endloop
  endfacet
  facet normal  0.000000e+000  0.000000e+000  1.000000e+000
    outer loop
      vertex  2.621141e+000 -2.319400e+000  3.900000e+000
      vertex  3.905242e+000 -2.133444e+000  3.900000e+000
      vertex  4.424407e+000 -4.765733e-001  3.900000e+000
    endloop
  endfacet
  facet normal  0.000000e+000  0.000000e+000  1.000000e+000
    outer loop
      vertex  2.621141e+000 -2.319400e+000  3.900000e+000
      vertex  4.424407e+000 -4.765733e-001  3.900000e+000
      vertex  3.367917e+000 -9.524370e-001  3.900000e+000
    endloop
  endfacet
  facet normal  0.000000e+000  0.000000e+000  1.000000e+000
    outer loop
      vertex  3.367917e+000 -9.524370e-001  3.900000e+000
      vertex  4.424407e+000 -4.765733e-001  3.900000e+000
      vertex  4.269996e+000  1.252851e+000  3.900000e+000
    endloop
  endfacet
  facet normal  0.000000e+000  0.000000e+000  1.000000e+000
    outer loop
      vertex  3.367917e+000 -9.524370e-001  3.900000e+000
      vertex  4.269996e+000  1.252851e+000  3.900000e+000
      vertex  3.447635e+000  6.031683e-001  3.900000e+000
    endloop
  endfacet
  facet normal  0.000000e+000  0.000000e+000  1.000000e+000
    outer loop
      vertex  3.447635e+000  6.031683e-001  3.900000e+000
      vertex  4.269996e+000  1.252851e+000  3.900000e+000
      vertex  3.465517e+000  2.791540e+000  3.900000e+000
    endloop
  endfacet
  facet normal  0.000000e+000  0.000000e+000  1.000000e+000
    outer loop
      vertex  3.447635e+000  6.031683e-001  3.900000e+000
      vertex  3.465517e+000  2.791540e+000  3.900000e+000
      vertex  2.844507e+000  2.039309e+000  3.900000e+000
    endloop
  endfacet
  facet normal  0.000000e+000  0.000000e+000  1.000000e+000
    outer loop
      vertex -4.765733e-001 -4.424407e+000  3.900000e+000
      vertex -1.791254e-001 -3.495413e+000  3.900000e+000
      vertex -2.133444e+000 -3.905242e+000  3.900000e+000
    endloop
  endfacet
  facet normal  0.000000e+000  0.000000e+000  1.000000e+000
    outer loop
      vertex -2.133444e+000 -3.905242e+000  3.900000e+000
      vertex -1.791254e-001 -3.495413e+000  3.900000e+000
      vertex -1.677989e+000 -3.071539e+000  3.900000e+000
    endloop
  endfacet
  facet normal  0.000000e+000  0.000000e+000  1.000000e+000
    outer loop
      vertex -2.133444e+000 -3.905242e+000  3.900000e+000
      vertex -1.677989e+000 -3.071539e+000  3.900000e+000
      vertex -3.465517e+000 -2.791540e+000  3.900000e+000
    endloop
  endfacet
  facet normal  -0.000000e+000  0.000000e+000  1.000000e+000
    outer loop
      vertex -3.465517e+000 -2.791540e+000  3.900000e+000
      vertex -1.677989e+000 -3.071539e+000  3.900000e+000
      vertex -2.844507e+000 -2.039309e+000  3.900000e+000
    endloop
  endfacet
  facet normal  0.000000e+000  0.000000e+000  1.000000e+000
    outer loop
      vertex -3.465517e+000 -2.791540e+000  3.900000e+000
      vertex -2.844507e+000 -2.039309e+000  3.900000e+000
      vertex -4.269996e+000 -1.252851e+000  3.900000e+000
    endloop
  endfacet
  facet normal  0.000000e+000  0.000000e+000  1.000000e+000
    outer loop
      vertex  2.844507e+000  2.039309e+000  3.900000e+000
      vertex  3.465517e+000  2.791540e+000  3.900000e+000
      vertex  1.677989e+000  3.071539e+000  3.900000e+000
    endloop
  endfacet
  facet normal  -0.000000e+000  0.000000e+000  1.000000e+000
    outer loop
      vertex  1.677989e+000  3.071539e+000  3.900000e+000
      vertex  3.465517e+000  2.791540e+000  3.900000e+000
      vertex  2.133444e+000  3.905242e+000  3.900000e+000
    endloop
  endfacet
  facet normal  0.000000e+000  0.000000e+000  1.000000e+000
    outer loop
      vertex  1.677989e+000  3.071539e+000  3.900000e+000
      vertex  2.133444e+000  3.905242e+000  3.900000e+000
      vertex  1.791254e-001  3.495413e+000  3.900000e+000
    endloop
  endfacet
  facet normal -5.620512e-001 -2.360416e-001  7.927060e-001
    outer loop
      vertex -1.618657e+000 -9.861766e-001  7.582750e+000
      vertex -3.447635e+000 -6.031683e-001  6.400000e+000
      vertex -2.844507e+000 -2.039309e+000  6.400000e+000
    endloop
  endfacet
  facet normal -4.089463e-001 -4.287179e-001  8.055829e-001
    outer loop
      vertex -1.618657e+000 -9.861766e-001  7.582750e+000
      vertex -2.844507e+000 -2.039309e+000  6.400000e+000
      vertex -9.087101e-001 -1.663383e+000  7.582750e+000
    endloop
  endfacet
  facet normal -6.127709e-001  3.140198e-002  7.896366e-001
    outer loop
      vertex -1.894887e+000 -4.472531e-002  7.582750e+000
      vertex -3.367917e+000  9.524370e-001  6.400000e+000
      vertex -3.447635e+000 -6.031683e-001  6.400000e+000
    endloop
  endfacet
  facet normal -5.596694e-001 -1.642115e-001  8.122837e-001
    outer loop
      vertex -1.894887e+000 -4.472531e-002  7.582750e+000
      vertex -3.447635e+000 -6.031683e-001  6.400000e+000
      vertex -1.618657e+000 -9.861766e-001  7.582750e+000
    endloop
  endfacet
  facet normal -5.396335e-001  2.948031e-001  7.885980e-001
    outer loop
      vertex -1.663383e+000  9.087101e-001  7.582750e+000
      vertex -2.621141e+000  2.319400e+000  6.400000e+000
      vertex -3.367917e+000  9.524370e-001  6.400000e+000
    endloop
  endfacet
  facet normal -5.623786e-001  1.365514e-001  8.155268e-001
    outer loop
      vertex -1.663383e+000  9.087101e-001  7.582750e+000
      vertex -3.367917e+000  9.524370e-001  6.400000e+000
      vertex -1.894887e+000 -4.472531e-002  7.582750e+000
    endloop
  endfacet
  facet normal -3.575054e-001  4.986623e-001  7.896365e-001
    outer loop
      vertex -9.861766e-001  1.618657e+000  7.582750e+000
      vertex -1.355217e+000  3.226978e+000  6.400000e+000
      vertex -2.621141e+000  2.319400e+000  6.400000e+000
    endloop
  endfacet
  facet normal -4.187585e-001  3.994463e-001  8.155268e-001
    outer loop
      vertex -9.861766e-001  1.618657e+000  7.582750e+000
      vertex -2.621141e+000  2.319400e+000  6.400000e+000
      vertex -1.663383e+000  9.087101e-001  7.582750e+000
    endloop
  endfacet
  facet normal -1.642115e-001  5.596694e-001  8.122836e-001
    outer loop
      vertex -4.472531e-002  1.894887e+000  7.582750e+000
      vertex -1.355217e+000  3.226978e+000  6.400000e+000
      vertex -9.861766e-001  1.618657e+000  7.582750e+000
    endloop
  endfacet
  facet normal -3.996594e-001 -4.516530e-001  7.976729e-001
    outer loop
      vertex -1.677989e+000 -3.071539e+000  6.400000e+000
      vertex -9.087101e-001 -1.663383e+000  7.582750e+000
      vertex -2.844507e+000 -2.039309e+000  6.400000e+000
    endloop
  endfacet
  facet normal  7.538129e-002  3.104534e-001  9.475950e-001
    outer loop
      vertex  0.000000e+000  4.440892e-016  8.200000e+000
      vertex  9.087101e-001  1.663383e+000  7.582750e+000
      vertex -4.472531e-002  1.894887e+000  7.582750e+000
    endloop
  endfacet
  facet normal -8.994455e-002  3.065512e-001  9.475950e-001
    outer loop
      vertex  0.000000e+000  4.440892e-016  8.200000e+000
      vertex -4.472531e-002  1.894887e+000  7.582750e+000
      vertex -9.861766e-001  1.618657e+000  7.582750e+000
    endloop
  endfacet
  facet normal -2.311699e-001  2.205088e-001  9.475950e-001
    outer loop
      vertex  0.000000e+000  4.440892e-016  8.200000e+000
      vertex -9.861766e-001  1.618657e+000  7.582750e+000
      vertex -1.663383e+000  9.087101e-001  7.582750e+000
    endloop
  endfacet
  facet normal -3.104534e-001  7.538129e-002  9.475950e-001
    outer loop
      vertex  0.000000e+000  4.440892e-016  8.200000e+000
      vertex -1.663383e+000  9.087101e-001  7.582750e+000
      vertex -1.894887e+000 -4.472531e-002  7.582750e+000
    endloop
  endfacet
  facet normal -3.065512e-001 -8.994455e-002  9.475950e-001
    outer loop
      vertex  0.000000e+000  4.440892e-016  8.200000e+000
      vertex -1.894887e+000 -4.472531e-002  7.582750e+000
      vertex -1.618657e+000 -9.861766e-001  7.582750e+000
    endloop
  endfacet
  facet normal -2.205088e-001 -2.311699e-001  9.475950e-001
    outer loop
      vertex  0.000000e+000  4.440892e-016  8.200000e+000
      vertex -1.618657e+000 -9.861766e-001  7.582750e+000
      vertex -9.087101e-001 -1.663383e+000  7.582750e+000
    endloop
  endfacet
  facet normal  1.431414e-001  5.895193e-001  7.949701e-001
    outer loop
      vertex  9.087101e-001  1.663383e+000  7.582750e+000
      vertex  1.677989e+000  3.071539e+000  6.400000e+000
      vertex -4.472531e-002  1.894887e+000  7.582750e+000
    endloop
  endfacet
  facet normal  1.616931e-001  5.717635e-001  8.043270e-001
    outer loop
      vertex -4.472531e-002  1.894887e+000  7.582750e+000
      vertex  1.677989e+000  3.071539e+000  6.400000e+000
      vertex  1.791254e-001  3.495413e+000  6.400000e+000
    endloop
  endfacet
  facet normal -1.050554e-001  6.004837e-001  7.927061e-001
    outer loop
      vertex -4.472531e-002  1.894887e+000  7.582750e+000
      vertex  1.791254e-001  3.495413e+000  6.400000e+000
      vertex -1.355217e+000  3.226978e+000  6.400000e+000
    endloop
  endfacet
  facet normal  2.721249e-001  9.622620e-001  -0.000000e+000
    outer loop
      vertex  1.677989e+000  3.071539e+000  6.400000e+000
      vertex  1.677989e+000  3.071539e+000  3.900000e+000
      vertex  1.791254e-001  3.495413e+000  6.400000e+000
    endloop
  endfacet
  facet normal  2.721249e-001  9.622620e-001  0.000000e+000
    outer loop
      vertex  1.791254e-001  3.495413e+000  6.400000e+000
      vertex  1.677989e+000  3.071539e+000  3.900000e+000
      vertex  1.791254e-001  3.495413e+000  3.900000e+000
    endloop
  endfacet
  facet normal -1.723339e-001  9.850386e-001  0.000000e+000
    outer loop
      vertex  1.791254e-001  3.495413e+000  6.400000e+000
      vertex  1.791254e-001  3.495413e+000  3.900000e+000
      vertex -1.355217e+000  3.226978e+000  6.400000e+000
    endloop
  endfacet
  facet normal -1.723339e-001  9.850386e-001  0.000000e+000
    outer loop
      vertex -1.355217e+000  3.226978e+000  6.400000e+000
      vertex  1.791254e-001  3.495413e+000  3.900000e+000
      vertex -1.355217e+000  3.226978e+000  3.900000e+000
    endloop
  endfacet
  facet normal -5.826597e-001  8.127163e-001  0.000000e+000
    outer loop
      vertex -1.355217e+000  3.226978e+000  6.400000e+000
      vertex -1.355217e+000  3.226978e+000  3.900000e+000
      vertex -2.621141e+000  2.319400e+000  6.400000e+000
    endloop
  endfacet
  facet normal -5.826597e-001  8.127163e-001  0.000000e+000
    outer loop
      vertex -2.621141e+000  2.319400e+000  6.400000e+000
      vertex -1.355217e+000  3.226978e+000  3.900000e+000
      vertex -2.621141e+000  2.319400e+000  3.900000e+000
    endloop
  endfacet
  facet normal -8.775826e-001  4.794256e-001  0.000000e+000
    outer loop
      vertex -2.621141e+000  2.319400e+000  6.400000e+000
      vertex -2.621141e+000  2.319400e+000  3.900000e+000
      vertex -3.367917e+000  9.524370e-001  6.400000e+000
    endloop
  endfacet
  facet normal -8.775826e-001  4.794256e-001  0.000000e+000
    outer loop
      vertex -3.367917e+000  9.524370e-001  6.400000e+000
      vertex -2.621141e+000  2.319400e+000  3.900000e+000
      vertex -3.367917e+000  9.524370e-001  3.900000e+000
    endloop
  endfacet
  facet normal -9.986894e-001  5.117871e-002  0.000000e+000
    outer loop
      vertex -3.367917e+000  9.524370e-001  6.400000e+000
      vertex -3.367917e+000  9.524370e-001  3.900000e+000
      vertex -3.447635e+000 -6.031683e-001  6.400000e+000
    endloop
  endfacet
  facet normal -9.986894e-001  5.117871e-002  0.000000e+000
    outer loop
      vertex -3.447635e+000 -6.031683e-001  6.400000e+000
      vertex -3.367917e+000  9.524370e-001  3.900000e+000
      vertex -3.447635e+000 -6.031683e-001  3.900000e+000
    endloop
  endfacet
  facet normal -9.219937e-001 -3.872047e-001  0.000000e+000
    outer loop
      vertex -3.447635e+000 -6.031683e-001  6.400000e+000
      vertex -3.447635e+000 -6.031683e-001  3.900000e+000
      vertex -2.844507e+000 -2.039309e+000  6.400000e+000
    endloop
  endfacet
  facet normal -9.219937e-001 -3.872047e-001  -0.000000e+000
    outer loop
      vertex -2.844507e+000 -2.039309e+000  6.400000e+000
      vertex -3.447635e+000 -6.031683e-001  3.900000e+000
      vertex -2.844507e+000 -2.039309e+000  3.900000e+000
    endloop
  endfacet
  facet normal -6.626858e-001 -7.488976e-001  0.000000e+000
    outer loop
      vertex -2.844507e+000 -2.039309e+000  6.400000e+000
      vertex -2.844507e+000 -2.039309e+000  3.900000e+000
      vertex -1.677989e+000 -3.071539e+000  6.400000e+000
    endloop
  endfacet
  facet normal -6.626858e-001 -7.488976e-001  -0.000000e+000
    outer loop
      vertex -1.677989e+000 -3.071539e+000  6.400000e+000
      vertex -2.844507e+000 -2.039309e+000  3.900000e+000
      vertex -1.677989e+000 -3.071539e+000  3.900000e+000
    endloop
  endfacet
  facet normal  5.620512e-001  2.360416e-001  7.927060e-001
    outer loop
      vertex  1.618657e+000  9.861766e-001  7.582750e+000
      vertex  3.447635e+000  6.031683e-001  6.400000e+000
      vertex  2.844507e+000  2.039309e+000  6.400000e+000
    endloop
  endfacet
  facet normal  4.089463e-001  4.287179e-001  8.055829e-001
    outer loop
      vertex  1.618657e+000  9.861766e-001  7.582750e+000
      vertex  2.844507e+000  2.039309e+000  6.400000e+000
      vertex  9.087101e-001  1.663383e+000  7.582750e+000
    endloop
  endfacet
  facet normal  6.127709e-001 -3.140198e-002  7.896366e-001
    outer loop
      vertex  1.894887e+000  4.472531e-002  7.582750e+000
      vertex  3.367917e+000 -9.524370e-001  6.400000e+000
      vertex  3.447635e+000  6.031683e-001  6.400000e+000
    endloop
  endfacet
  facet normal  5.596694e-001  1.642115e-001  8.122837e-001
    outer loop
      vertex  1.894887e+000  4.472531e-002  7.582750e+000
      vertex  3.447635e+000  6.031683e-001  6.400000e+000
      vertex  1.618657e+000  9.861766e-001  7.582750e+000
    endloop
  endfacet
  facet normal  5.396335e-001 -2.948031e-001  7.885980e-001
    outer loop
      vertex  1.663383e+000 -9.087101e-001  7.582750e+000
      vertex  2.621141e+000 -2.319400e+000  6.400000e+000
      vertex  3.367917e+000 -9.524370e-001  6.400000e+000
    endloop
  endfacet
  facet normal  5.623786e-001 -1.365514e-001  8.155268e-001
    outer loop
      vertex  1.663383e+000 -9.087101e-001  7.582750e+000
      vertex  3.367917e+000 -9.524370e-001  6.400000e+000
      vertex  1.894887e+000  4.472531e-002  7.582750e+000
    endloop
  endfacet
  facet normal  3.575054e-001 -4.986623e-001  7.896365e-001
    outer loop
      vertex  9.861766e-001 -1.618657e+000  7.582750e+000
      vertex  1.355217e+000 -3.226978e+000  6.400000e+000
      vertex  2.621141e+000 -2.319400e+000  6.400000e+000
    endloop
  endfacet
  facet normal  4.187585e-001 -3.994463e-001  8.155268e-001
    outer loop
      vertex  9.861766e-001 -1.618657e+000  7.582750e+000
      vertex  2.621141e+000 -2.319400e+000  6.400000e+000
      vertex  1.663383e+000 -9.087101e-001  7.582750e+000
    endloop
  endfacet
  facet normal  1.642115e-001 -5.596694e-001  8.122836e-001
    outer loop
      vertex  4.472531e-002 -1.894887e+000  7.582750e+000
      vertex  1.355217e+000 -3.226978e+000  6.400000e+000
      vertex  9.861766e-001 -1.618657e+000  7.582750e+000
    endloop
  endfacet
  facet normal  3.996594e-001  4.516530e-001  7.976729e-001
    outer loop
      vertex  1.677989e+000  3.071539e+000  6.400000e+000
      vertex  9.087101e-001  1.663383e+000  7.582750e+000
      vertex  2.844507e+000  2.039309e+000  6.400000e+000
    endloop
  endfacet
  facet normal -7.538129e-002 -3.104534e-001  9.475950e-001
    outer loop
      vertex  0.000000e+000  4.440892e-016  8.200000e+000
      vertex -9.087101e-001 -1.663383e+000  7.582750e+000
      vertex  4.472531e-002 -1.894887e+000  7.582750e+000
    endloop
  endfacet
  facet normal  8.994455e-002 -3.065512e-001  9.475950e-001
    outer loop
      vertex  0.000000e+000  4.440892e-016  8.200000e+000
      vertex  4.472531e-002 -1.894887e+000  7.582750e+000
      vertex  9.861766e-001 -1.618657e+000  7.582750e+000
    endloop
  endfacet
  facet normal  2.311699e-001 -2.205088e-001  9.475950e-001
    outer loop
      vertex  0.000000e+000  4.440892e-016  8.200000e+000
      vertex  9.861766e-001 -1.618657e+000  7.582750e+000
      vertex  1.663383e+000 -9.087101e-001  7.582750e+000
    endloop
  endfacet
  facet normal  3.104534e-001 -7.538129e-002  9.475950e-001
    outer loop
      vertex  0.000000e+000  4.440892e-016  8.200000e+000
      vertex  1.663383e+000 -9.087101e-001  7.582750e+000
      vertex  1.894887e+000  4.472531e-002  7.582750e+000
    endloop
  endfacet
  facet normal  3.065512e-001  8.994455e-002  9.475950e-001
    outer loop
      vertex  0.000000e+000  4.440892e-016  8.200000e+000
      vertex  1.894887e+000  4.472531e-002  7.582750e+000
      vertex  1.618657e+000  9.861766e-001  7.582750e+000
    endloop
  endfacet
  facet normal  2.205088e-001  2.311699e-001  9.475950e-001
    outer loop
      vertex  0.000000e+000  4.440892e-016  8.200000e+000
      vertex  1.618657e+000  9.861766e-001  7.582750e+000
      vertex  9.087101e-001  1.663383e+000  7.582750e+000
    endloop
  endfacet
  facet normal -1.431414e-001 -5.895193e-001  7.949701e-001
    outer loop
      vertex -9.087101e-001 -1.663383e+000  7.582750e+000
      vertex -1.677989e+000 -3.071539e+000  6.400000e+000
      vertex  4.472531e-002 -1.894887e+000  7.582750e+000
    endloop
  endfacet
  facet normal -1.616931e-001 -5.717635e-001  8.043270e-001
    outer loop
      vertex  4.472531e-002 -1.894887e+000  7.582750e+000
      vertex -1.677989e+000 -3.071539e+000  6.400000e+000
      vertex -1.791254e-001 -3.495413e+000  6.400000e+000
    endloop
  endfacet
  facet normal  1.050554e-001 -6.004837e-001  7.927061e-001
    outer loop
      vertex  4.472531e-002 -1.894887e+000  7.582750e+000
      vertex -1.791254e-001 -3.495413e+000  6.400000e+000
      vertex  1.355217e+000 -3.226978e+000  6.400000e+000
    endloop
  endfacet
  facet normal -2.721249e-001 -9.622620e-001  0.000000e+000
    outer loop
      vertex -1.677989e+000 -3.071539e+000  6.400000e+000
      vertex -1.677989e+000 -3.071539e+000  3.900000e+000
      vertex -1.791254e-001 -3.495413e+000  6.400000e+000
    endloop
  endfacet
  facet normal -2.721249e-001 -9.622620e-001  -0.000000e+000
    outer loop
      vertex -1.791254e-001 -3.495413e+000  6.400000e+000
      vertex -1.677989e+000 -3.071539e+000  3.900000e+000
      vertex -1.791254e-001 -3.495413e+000  3.900000e+000
    endloop
  endfacet
  facet normal  1.723339e-001 -9.850386e-001  0.000000e+000
    outer loop
      vertex -1.791254e-001 -3.495413e+000  6.400000e+000
      vertex -1.791254e-001 -3.495413e+000  3.900000e+000
      vertex  1.355217e+000 -3.226978e+000  6.400000e+000
    endloop
  endfacet
  facet normal  1.723339e-001 -9.850386e-001  0.000000e+000
    outer loop
      vertex  1.355217e+000 -3.226978e+000  6.400000e+000
      vertex -1.791254e-001 -3.495413e+000  3.900000e+000
      vertex  1.355217e+000 -3.226978e+000  3.900000e+000
    endloop
  endfacet
  facet normal  5.826597e-001 -8.127163e-001  0.000000e+000
    outer loop
      vertex  1.355217e+000 -3.226978e+000  6.400000e+000
      vertex  1.355217e+000 -3.226978e+000  3.900000e+000
      vertex  2.621141e+000 -2.319400e+000  6.400000e+000
    endloop
  endfacet
  facet normal  5.826597e-001 -8.127163e-001  0.000000e+000
    outer loop
      vertex  2.621141e+000 -2.319400e+000  6.400000e+000
      vertex  1.355217e+000 -3.226978e+000  3.900000e+000
      vertex  2.621141e+000 -2.319400e+000  3.900000e+000
    endloop
  endfacet
  facet normal  8.775826e-001 -4.794256e-001  0.000000e+000
    outer loop
      vertex  2.621141e+000 -2.319400e+000  6.400000e+000
      vertex  2.621141e+000 -2.319400e+000  3.900000e+000
      vertex  3.367917e+000 -9.524370e-001  6.400000e+000
    endloop
  endfacet
  facet normal  8.775826e-001 -4.794256e-001  0.000000e+000
    outer loop
      vertex  3.367917e+000 -9.524370e-001  6.400000e+000
      vertex  2.621141e+000 -2.319400e+000  3.900000e+000
      vertex  3.367917e+000 -9.524370e-001  3.900000e+000
    endloop
  endfacet
  facet normal  9.986894e-001 -5.117871e-002  0.000000e+000
    outer loop
      vertex  3.367917e+000 -9.524370e-001  6.400000e+000
      vertex  3.367917e+000 -9.524370e-001  3.900000e+000
      vertex  3.447635e+000  6.031683e-001  6.400000e+000
    endloop
  endfacet
  facet normal  9.986894e-001 -5.117871e-002  0.000000e+000
    outer loop
      vertex  3.447635e+000  6.031683e-001  6.400000e+000
      vertex  3.367917e+000 -9.524370e-001  3.900000e+000
      vertex  3.447635e+000  6.031683e-001  3.900000e+000
    endloop
  endfacet
  facet normal  9.219937e-001  3.872047e-001  -0.000000e+000
    outer loop
      vertex  3.447635e+000  6.031683e-001  6.400000e+000
      vertex  3.447635e+000  6.031683e-001  3.900000e+000
      vertex  2.844507e+000  2.039309e+000  6.400000e+000
    endloop
  endfacet
  facet normal  9.219937e-001  3.872047e-001  0.000000e+000
    outer loop
      vertex  2.844507e+000  2.039309e+000  6.400000e+000
      vertex  3.447635e+000  6.031683e-001  3.900000e+000
      vertex  2.844507e+000  2.039309e+000  3.900000e+000
    endloop
  endfacet
  facet normal  6.626858e-001  7.488976e-001  -0.000000e+000
    outer loop
      vertex  2.844507e+000  2.039309e+000  6.400000e+000
      vertex  2.844507e+000  2.039309e+000  3.900000e+000
      vertex  1.677989e+000  3.071539e+000  6.400000e+000
    endloop
  endfacet
  facet normal  6.626858e-001  7.488976e-001  0.000000e+000
    outer loop
      vertex  1.677989e+000  3.071539e+000  6.400000e+000
      vertex  2.844507e+000  2.039309e+000  3.900000e+000
      vertex  1.677989e+000  3.071539e+000  3.900000e+000
    endloop
  endfacet
endsolid CATIA STL
